ffmpeg version git-2026-04-19-de18feb Copyright (c) 2000-2026 the FFmpeg developers
  built with gcc 9 (Ubuntu 9.4.0-1ubuntu1~20.04.2)
  configuration: --enable-shared --enable-gpl --enable-libx264
  libavutil      60. 30.100 / 60. 30.100
  libavcodec     62. 30.100 / 62. 30.100
  libavformat    62. 13.102 / 62. 13.102
  libavdevice    62.  4.100 / 62.  4.100
  libavfilter    11. 15.101 / 11. 15.101
  libswscale      9.  7.100 /  9.  7.100
  libswresample   6.  4.100 /  6.  4.100
[in#0/x11grab @ 0x5642386e9c40] Stream #0: not enough frames to estimate rate; consider increasing probesize
Input #0, x11grab, from ':0.0+0,0':
  Duration: N/A, start: 1777365876.332773, bitrate: 3678192 kb/s
  Stream #0:0: Video: rawvideo (BGR[0] / 0x524742), bgr0, 2870x1602, 3678192 kb/s, 25 fps, 1000k tbr, 1000k tbn, start 1777365876.332773
Stream mapping:
  Stream #0:0 -> #0:0 (rawvideo (native) -> h264 (libx264))
[libx264 @ 0x5642386f7f00] using cpu capabilities: MMX2 SSE2Fast SSSE3 SSE4.2 AVX FMA3 BMI2 AVX2
[libx264 @ 0x5642386f7f00] profile High, level 5.0
[libx264 @ 0x5642386f7f00] 264 - core 155 r2917 0a84d98 - H.264/MPEG-4 AVC codec - Copyleft 2003-2018 - http://www.videolan.org/x264.html - options: cabac=1 ref=1 deblock=1:0:0 analyse=0x3:0x113 me=hex subme=2 psy=1 psy_rd=1.00:0.00 mixed_ref=0 me_range=16 chroma_me=1 trellis=0 8x8dct=1 cqm=0 deadzone=21,11 fast_pskip=1 chroma_qp_offset=0 threads=6 lookahead_threads=2 sliced_threads=0 nr=0 decimate=1 interlaced=0 bluray_compat=0 constrained_intra=0 bframes=3 b_pyramid=2 b_adapt=1 b_bias=0 direct=1 weightb=1 open_gop=0 weightp=1 keyint=250 keyint_min=25 scenecut=40 intra_refresh=0 rc_lookahead=10 rc=crf mbtree=1 crf=23.0 qcomp=0.60 qpmin=0 qpmax=69 qpstep=4 ip_ratio=1.40 aq=1:1.00
Output #0, matroska, to '/home/lmy/catkin_ws/recordings_tmp/exp_10_segment/screen.mkv':
  Metadata:
    encoder         : Lavf62.13.102
  Stream #0:0: Video: h264 (H264 / 0x34363248), yuv420p(tv, progressive), 2870x1602, q=2-31, 25 fps, 1k tbn
    Metadata:
      encoder         : Lavc62.30.100 libx264
    Side data:
      CPB properties: bitrate max/min/avg: 0/0/0 buffer size: 0 vbv_delay: N/A
frame=    0 fps=0.0 q=0.0 size=       0KiB time=N/A bitrate=N/A speed=N/A elapsed=0:00:00.50    frame=    6 fps=6.0 q=28.0 size=       1KiB time=00:00:00.16 bitrate=  29.7kbits/s speed=0.16x elapsed=0:00:01.00    frame=   18 fps= 12 q=28.0 size=       1KiB time=00:00:00.64 bitrate=   7.4kbits/s speed=0.426x elapsed=0:00:01.50    frame=   31 fps= 15 q=28.0 size=       1KiB time=00:00:01.16 bitrate=   4.1kbits/s speed=0.58x elapsed=0:00:02.00    frame=   43 fps= 17 q=28.0 size=       1KiB time=00:00:01.64 bitrate=   2.9kbits/s speed=0.655x elapsed=0:00:02.50    frame=   56 fps= 19 q=28.0 size=       1KiB time=00:00:02.16 bitrate=   2.2kbits/s speed=0.719x elapsed=0:00:03.00    frame=   68 fps= 19 q=28.0 size=       1KiB time=00:00:02.64 bitrate=   1.8kbits/s speed=0.754x elapsed=0:00:03.50    frame=   81 fps= 20 q=28.0 size=       1KiB time=00:00:03.16 bitrate=   1.5kbits/s speed=0.789x elapsed=0:00:04.00    frame=   93 fps= 21 q=28.0 size=       1KiB time=00:00:03.64 bitrate=   1.3kbits/s speed=0.808x elapsed=0:00:04.50    frame=  106 fps= 21 q=28.0 size=       1KiB time=00:00:04.16 bitrate=   1.1kbits/s speed=0.831x elapsed=0:00:05.00    frame=  118 fps= 21 q=28.0 size=       1KiB time=00:00:04.64 bitrate=   1.0kbits/s speed=0.843x elapsed=0:00:05.50    frame=  131 fps= 22 q=28.0 size=     222KiB time=00:00:05.16 bitrate= 352.7kbits/s speed=0.859x elapsed=0:00:06.00    frame=  143 fps= 22 q=28.0 size=     222KiB time=00:00:05.64 bitrate= 322.7kbits/s speed=0.867x elapsed=0:00:06.50    frame=  156 fps= 22 q=28.0 size=     222KiB time=00:00:06.16 bitrate= 295.5kbits/s speed=0.879x elapsed=0:00:07.00    frame=  168 fps= 22 q=28.0 size=     222KiB time=00:00:06.64 bitrate= 274.1kbits/s speed=0.884x elapsed=0:00:07.50    frame=  181 fps= 23 q=28.0 size=     222KiB time=00:00:07.16 bitrate= 254.2kbits/s speed=0.894x elapsed=0:00:08.00    frame=  193 fps= 23 q=28.0 size=     222KiB time=00:00:07.64 bitrate= 238.2kbits/s speed=0.898x elapsed=0:00:08.50    frame=  206 fps= 23 q=28.0 size=     222KiB time=00:00:08.16 bitrate= 223.1kbits/s speed=0.906x elapsed=0:00:09.00    frame=  218 fps= 23 q=28.0 size=     222KiB time=00:00:08.64 bitrate= 210.7kbits/s speed=0.909x elapsed=0:00:09.50    frame=  231 fps= 23 q=28.0 size=     222KiB time=00:00:09.16 bitrate= 198.7kbits/s speed=0.915x elapsed=0:00:10.00    frame=  243 fps= 23 q=28.0 size=     222KiB time=00:00:09.64 bitrate= 188.8kbits/s speed=0.917x elapsed=0:00:10.50    frame=  256 fps= 23 q=28.0 size=     256KiB time=00:00:10.16 bitrate= 206.4kbits/s speed=0.923x elapsed=0:00:11.00    frame=  269 fps= 23 q=28.0 size=     256KiB time=00:00:10.68 bitrate= 196.4kbits/s speed=0.928x elapsed=0:00:11.51    frame=  281 fps= 23 q=28.0 size=     256KiB time=00:00:11.16 bitrate= 187.9kbits/s speed=0.929x elapsed=0:00:12.01    frame=  293 fps= 23 q=28.0 size=     256KiB time=00:00:11.64 bitrate= 180.2kbits/s speed=0.93x elapsed=0:00:12.51    frame=  306 fps= 24 q=28.0 size=     256KiB time=00:00:12.16 bitrate= 172.5kbits/s speed=0.934x elapsed=0:00:13.01    frame=  318 fps= 24 q=28.0 size=     256KiB time=00:00:12.64 bitrate= 165.9kbits/s speed=0.935x elapsed=0:00:13.51    frame=  331 fps= 24 q=28.0 size=     256KiB time=00:00:13.16 bitrate= 159.4kbits/s speed=0.939x elapsed=0:00:14.01    frame=  343 fps= 24 q=28.0 size=     256KiB time=00:00:13.64 bitrate= 153.8kbits/s speed=0.94x elapsed=0:00:14.51    frame=  356 fps= 24 q=28.0 size=     256KiB time=00:00:14.16 bitrate= 148.1kbits/s speed=0.943x elapsed=0:00:15.01    frame=  369 fps= 24 q=28.0 size=     256KiB time=00:00:14.68 bitrate= 142.9kbits/s speed=0.946x elapsed=0:00:15.51    frame=  381 fps= 24 q=28.0 size=     512KiB time=00:00:15.16 bitrate= 276.7kbits/s speed=0.947x elapsed=0:00:16.01    frame=  394 fps= 24 q=28.0 size=     512KiB time=00:00:15.68 bitrate= 267.5kbits/s speed=0.949x elapsed=0:00:16.51    frame=  406 fps= 24 q=28.0 size=     512KiB time=00:00:16.16 bitrate= 259.5kbits/s speed=0.95x elapsed=0:00:17.01    frame=  419 fps= 24 q=28.0 size=     512KiB time=00:00:16.68 bitrate= 251.5kbits/s speed=0.952x elapsed=0:00:17.51    frame=  431 fps= 24 q=28.0 size=     512KiB time=00:00:17.16 bitrate= 244.4kbits/s speed=0.953x elapsed=0:00:18.01    frame=  444 fps= 24 q=28.0 size=     512KiB time=00:00:17.68 bitrate= 237.2kbits/s speed=0.955x elapsed=0:00:18.51    frame=  456 fps= 24 q=28.0 size=     512KiB time=00:00:18.16 bitrate= 231.0kbits/s speed=0.955x elapsed=0:00:19.01    frame=  468 fps= 24 q=28.0 size=     512KiB time=00:00:18.64 bitrate= 225.0kbits/s speed=0.955x elapsed=0:00:19.51    frame=  481 fps= 24 q=28.0 size=     512KiB time=00:00:19.16 bitrate= 218.9kbits/s speed=0.957x elapsed=0:00:20.01    frame=  493 fps= 24 q=28.0 size=     512KiB time=00:00:19.64 bitrate= 213.6kbits/s speed=0.957x elapsed=0:00:20.51    frame=  506 fps= 24 q=28.0 size=     512KiB time=00:00:20.16 bitrate= 208.1kbits/s speed=0.959x elapsed=0:00:21.02    frame=  519 fps= 24 q=28.0 size=     512KiB time=00:00:20.68 bitrate= 202.8kbits/s speed=0.961x elapsed=0:00:21.52    frame=  531 fps= 24 q=28.0 size=     512KiB time=00:00:21.16 bitrate= 198.2kbits/s speed=0.961x elapsed=0:00:22.02    frame=  544 fps= 24 q=28.0 size=     512KiB time=00:00:21.68 bitrate= 193.5kbits/s speed=0.963x elapsed=0:00:22.52    frame=  556 fps= 24 q=28.0 size=     512KiB time=00:00:22.16 bitrate= 189.3kbits/s speed=0.962x elapsed=0:00:23.02    frame=  569 fps= 24 q=28.0 size=     512KiB time=00:00:22.68 bitrate= 184.9kbits/s speed=0.964x elapsed=0:00:23.52    frame=  581 fps= 24 q=28.0 size=     512KiB time=00:00:23.16 bitrate= 181.1kbits/s speed=0.964x elapsed=0:00:24.02    frame=  594 fps= 24 q=28.0 size=     512KiB time=00:00:23.68 bitrate= 177.1kbits/s speed=0.966x elapsed=0:00:24.52    frame=  606 fps= 24 q=28.0 size=     512KiB time=00:00:24.16 bitrate= 173.6kbits/s speed=0.965x elapsed=0:00:25.02    frame=  619 fps= 24 q=28.0 size=     512KiB time=00:00:24.68 bitrate= 169.9kbits/s speed=0.967x elapsed=0:00:25.52    frame=  631 fps= 24 q=28.0 size=     768KiB time=00:00:25.16 bitrate= 250.1kbits/s speed=0.967x elapsed=0:00:26.02    frame=  644 fps= 24 q=28.0 size=     768KiB time=00:00:25.68 bitrate= 245.0kbits/s speed=0.968x elapsed=0:00:26.52    frame=  656 fps= 24 q=28.0 size=     768KiB time=00:00:26.16 bitrate= 240.5kbits/s speed=0.968x elapsed=0:00:27.02    frame=  669 fps= 24 q=28.0 size=     768KiB time=00:00:26.68 bitrate= 235.8kbits/s speed=0.969x elapsed=0:00:27.52    frame=  681 fps= 24 q=28.0 size=     768KiB time=00:00:27.16 bitrate= 231.6kbits/s speed=0.969x elapsed=0:00:28.02    frame=  694 fps= 24 q=28.0 size=     768KiB time=00:00:27.68 bitrate= 227.3kbits/s speed=0.97x elapsed=0:00:28.52    frame=  707 fps= 24 q=28.0 size=     768KiB time=00:00:28.20 bitrate= 223.1kbits/s speed=0.971x elapsed=0:00:29.02    frame=  719 fps= 24 q=28.0 size=     768KiB time=00:00:28.68 bitrate= 219.4kbits/s speed=0.971x elapsed=0:00:29.52    frame=  731 fps= 24 q=28.0 size=     768KiB time=00:00:29.16 bitrate= 215.8kbits/s speed=0.971x elapsed=0:00:30.02    frame=  744 fps= 24 q=28.0 size=     768KiB time=00:00:29.68 bitrate= 212.0kbits/s speed=0.972x elapsed=0:00:30.52    frame=  756 fps= 24 q=28.0 size=    1024KiB time=00:00:30.16 bitrate= 278.1kbits/s speed=0.972x elapsed=0:00:31.03    frame=  769 fps= 24 q=28.0 size=    1024KiB time=00:00:30.68 bitrate= 273.4kbits/s speed=0.973x elapsed=0:00:31.53    frame=  782 fps= 24 q=28.0 size=    1024KiB time=00:00:31.20 bitrate= 268.9kbits/s speed=0.974x elapsed=0:00:32.03    frame=  794 fps= 24 q=28.0 size=    1024KiB time=00:00:31.68 bitrate= 264.8kbits/s speed=0.974x elapsed=0:00:32.53    frame=  806 fps= 24 q=28.0 size=    1024KiB time=00:00:32.20 bitrate= 260.5kbits/s speed=0.975x elapsed=0:00:33.03    frame=  819 fps= 24 q=28.0 size=    1024KiB time=00:00:32.68 bitrate= 256.7kbits/s speed=0.975x elapsed=0:00:33.53    frame=  831 fps= 24 q=28.0 size=    1024KiB time=00:00:33.16 bitrate= 253.0kbits/s speed=0.974x elapsed=0:00:34.03    frame=  844 fps= 24 q=28.0 size=    1024KiB time=00:00:33.68 bitrate= 249.1kbits/s speed=0.975x elapsed=0:00:34.53    frame=  857 fps= 24 q=28.0 size=    1024KiB time=00:00:34.20 bitrate= 245.3kbits/s speed=0.976x elapsed=0:00:35.03    frame=  869 fps= 24 q=28.0 size=    1024KiB time=00:00:34.68 bitrate= 241.9kbits/s speed=0.976x elapsed=0:00:35.53    frame=  882 fps= 24 q=28.0 size=    1280KiB time=00:00:35.20 bitrate= 297.9kbits/s speed=0.977x elapsed=0:00:36.03    frame=  894 fps= 24 q=28.0 size=    1280KiB time=00:00:35.68 bitrate= 293.9kbits/s speed=0.977x elapsed=0:00:36.53    frame=  907 fps= 24 q=28.0 size=    1280KiB time=00:00:36.20 bitrate= 289.7kbits/s speed=0.977x elapsed=0:00:37.03    frame=  919 fps= 24 q=28.0 size=    1280KiB time=00:00:36.68 bitrate= 285.9kbits/s speed=0.977x elapsed=0:00:37.53    frame=  932 fps= 25 q=28.0 size=    1280KiB time=00:00:37.20 bitrate= 281.9kbits/s speed=0.978x elapsed=0:00:38.03    frame=  944 fps= 24 q=28.0 size=    1280KiB time=00:00:37.68 bitrate= 278.3kbits/s speed=0.978x elapsed=0:00:38.53    frame=  957 fps= 25 q=28.0 size=    1280KiB time=00:00:38.20 bitrate= 274.5kbits/s speed=0.979x elapsed=0:00:39.03    frame=  969 fps= 25 q=28.0 size=    1280KiB time=00:00:38.68 bitrate= 271.1kbits/s speed=0.978x elapsed=0:00:39.53    frame=  982 fps= 25 q=28.0 size=    1280KiB time=00:00:39.20 bitrate= 267.5kbits/s speed=0.979x elapsed=0:00:40.03    frame=  994 fps= 25 q=28.0 size=    1280KiB time=00:00:39.68 bitrate= 264.3kbits/s speed=0.979x elapsed=0:00:40.53    frame= 1007 fps= 25 q=28.0 size=    1280KiB time=00:00:40.20 bitrate= 260.8kbits/s speed=0.98x elapsed=0:00:41.03    frame= 1019 fps= 25 q=28.0 size=    1280KiB time=00:00:40.68 bitrate= 257.8kbits/s speed=0.979x elapsed=0:00:41.53    frame= 1032 fps= 25 q=28.0 size=    1280KiB time=00:00:41.20 bitrate= 254.5kbits/s speed=0.98x elapsed=0:00:42.04    frame= 1044 fps= 25 q=28.0 size=    1280KiB time=00:00:41.68 bitrate= 251.6kbits/s speed=0.98x elapsed=0:00:42.54    frame= 1057 fps= 25 q=28.0 size=    1280KiB time=00:00:42.20 bitrate= 248.5kbits/s speed=0.98x elapsed=0:00:43.04    frame= 1069 fps= 25 q=28.0 size=    1280KiB time=00:00:42.68 bitrate= 245.7kbits/s speed=0.98x elapsed=0:00:43.54    frame= 1081 fps= 25 q=28.0 size=    1280KiB time=00:00:43.16 bitrate= 243.0kbits/s speed=0.98x elapsed=0:00:44.04    frame= 1094 fps= 25 q=28.0 size=    1280KiB time=00:00:43.68 bitrate= 240.1kbits/s speed=0.981x elapsed=0:00:44.54    frame= 1107 fps= 25 q=28.0 size=    1280KiB time=00:00:44.20 bitrate= 237.2kbits/s speed=0.981x elapsed=0:00:45.04    frame= 1119 fps= 25 q=28.0 size=    1280KiB time=00:00:44.68 bitrate= 234.7kbits/s speed=0.981x elapsed=0:00:45.54    frame= 1132 fps= 25 q=28.0 size=    1536KiB time=00:00:45.20 bitrate= 278.4kbits/s speed=0.982x elapsed=0:00:46.04    frame= 1144 fps= 25 q=28.0 size=    1536KiB time=00:00:45.68 bitrate= 275.5kbits/s speed=0.981x elapsed=0:00:46.54    frame= 1157 fps= 25 q=28.0 size=    1536KiB time=00:00:46.20 bitrate= 272.4kbits/s speed=0.982x elapsed=0:00:47.05    frame= 1169 fps= 25 q=28.0 size=    1536KiB time=00:00:46.68 bitrate= 269.6kbits/s speed=0.982x elapsed=0:00:47.55    frame= 1182 fps= 25 q=28.0 size=    1536KiB time=00:00:47.20 bitrate= 266.6kbits/s speed=0.982x elapsed=0:00:48.05    frame= 1195 fps= 25 q=28.0 size=    1536KiB time=00:00:47.72 bitrate= 263.7kbits/s speed=0.983x elapsed=0:00:48.55    frame= 1207 fps= 25 q=28.0 size=    1536KiB time=00:00:48.20 bitrate= 261.1kbits/s speed=0.983x elapsed=0:00:49.05    frame= 1219 fps= 25 q=28.0 size=    1536KiB time=00:00:48.68 bitrate= 258.5kbits/s speed=0.982x elapsed=0:00:49.55    frame= 1232 fps= 25 q=28.0 size=    1536KiB time=00:00:49.20 bitrate= 255.8kbits/s speed=0.983x elapsed=0:00:50.05    frame= 1245 fps= 25 q=28.0 size=    1536KiB time=00:00:49.72 bitrate= 253.1kbits/s speed=0.984x elapsed=0:00:50.55    frame= 1257 fps= 25 q=28.0 size=    1536KiB time=00:00:50.20 bitrate= 250.7kbits/s speed=0.983x elapsed=0:00:51.05    frame= 1270 fps= 25 q=28.0 size=    1536KiB time=00:00:50.72 bitrate= 248.1kbits/s speed=0.984x elapsed=0:00:51.55    frame= 1282 fps= 25 q=28.0 size=    1536KiB time=00:00:51.20 bitrate= 245.8kbits/s speed=0.984x elapsed=0:00:52.05    frame= 1295 fps= 25 q=28.0 size=    1536KiB time=00:00:51.72 bitrate= 243.3kbits/s speed=0.984x elapsed=0:00:52.55    frame= 1307 fps= 25 q=28.0 size=    1536KiB time=00:00:52.20 bitrate= 241.1kbits/s speed=0.984x elapsed=0:00:53.05    frame= 1320 fps= 25 q=28.0 size=    1536KiB time=00:00:52.72 bitrate= 238.7kbits/s speed=0.984x elapsed=0:00:53.55    frame= 1332 fps= 25 q=28.0 size=    1536KiB time=00:00:53.20 bitrate= 236.5kbits/s speed=0.984x elapsed=0:00:54.05    frame= 1345 fps= 25 q=28.0 size=    1536KiB time=00:00:53.72 bitrate= 234.2kbits/s speed=0.985x elapsed=0:00:54.55    frame= 1357 fps= 25 q=28.0 size=    1536KiB time=00:00:54.20 bitrate= 232.2kbits/s speed=0.984x elapsed=0:00:55.05    frame= 1369 fps= 25 q=28.0 size=    1536KiB time=00:00:54.68 bitrate= 230.1kbits/s speed=0.984x elapsed=0:00:55.55    frame= 1382 fps= 25 q=28.0 size=    1792KiB time=00:00:55.20 bitrate= 265.9kbits/s speed=0.985x elapsed=0:00:56.05    frame= 1395 fps= 25 q=28.0 size=    1792KiB time=00:00:55.72 bitrate= 263.5kbits/s speed=0.985x elapsed=0:00:56.55    frame= 1407 fps= 25 q=28.0 size=    1792KiB time=00:00:56.20 bitrate= 261.2kbits/s speed=0.985x elapsed=0:00:57.05    frame= 1420 fps= 25 q=28.0 size=    1792KiB time=00:00:56.72 bitrate= 258.8kbits/s speed=0.985x elapsed=0:00:57.55    frame= 1432 fps= 25 q=28.0 size=    1792KiB time=00:00:57.20 bitrate= 256.6kbits/s speed=0.985x elapsed=0:00:58.05    frame= 1445 fps= 25 q=28.0 size=    1792KiB time=00:00:57.72 bitrate= 254.3kbits/s speed=0.986x elapsed=0:00:58.55    frame= 1457 fps= 25 q=28.0 size=    1792KiB time=00:00:58.20 bitrate= 252.2kbits/s speed=0.985x elapsed=0:00:59.05    frame= 1469 fps= 25 q=28.0 size=    1792KiB time=00:00:58.68 bitrate= 250.2kbits/s speed=0.985x elapsed=0:00:59.55    frame= 1482 fps= 25 q=28.0 size=    1792KiB time=00:00:59.20 bitrate= 248.0kbits/s speed=0.986x elapsed=0:01:00.05    frame= 1495 fps= 25 q=28.0 size=    1792KiB time=00:00:59.72 bitrate= 245.8kbits/s speed=0.986x elapsed=0:01:00.55    frame= 1507 fps= 25 q=28.0 size=    2048KiB time=00:01:00.20 bitrate= 278.7kbits/s speed=0.986x elapsed=0:01:01.05    frame= 1520 fps= 25 q=28.0 size=    2048KiB time=00:01:00.72 bitrate= 276.3kbits/s speed=0.986x elapsed=0:01:01.55    frame= 1532 fps= 25 q=28.0 size=    2048KiB time=00:01:01.20 bitrate= 274.1kbits/s speed=0.986x elapsed=0:01:02.06    frame= 1545 fps= 25 q=28.0 size=    2048KiB time=00:01:01.72 bitrate= 271.8kbits/s speed=0.986x elapsed=0:01:02.56    frame= 1557 fps= 25 q=28.0 size=    2048KiB time=00:01:02.20 bitrate= 269.7kbits/s speed=0.986x elapsed=0:01:03.06    frame= 1570 fps= 25 q=28.0 size=    2048KiB time=00:01:02.72 bitrate= 267.5kbits/s speed=0.987x elapsed=0:01:03.56    frame= 1582 fps= 25 q=28.0 size=    2048KiB time=00:01:03.20 bitrate= 265.5kbits/s speed=0.986x elapsed=0:01:04.06    frame= 1595 fps= 25 q=28.0 size=    2048KiB time=00:01:03.72 bitrate= 263.3kbits/s speed=0.987x elapsed=0:01:04.56    frame= 1607 fps= 25 q=28.0 size=    2048KiB time=00:01:04.20 bitrate= 261.3kbits/s speed=0.987x elapsed=0:01:05.06    frame= 1620 fps= 25 q=28.0 size=    2048KiB time=00:01:04.72 bitrate= 259.2kbits/s speed=0.987x elapsed=0:01:05.56    frame= 1633 fps= 25 q=28.0 size=    2304KiB time=00:01:05.24 bitrate= 289.3kbits/s speed=0.987x elapsed=0:01:06.06    frame= 1645 fps= 25 q=28.0 size=    2304KiB time=00:01:05.72 bitrate= 287.2kbits/s speed=0.987x elapsed=0:01:06.57    frame= 1657 fps= 25 q=28.0 size=    2304KiB time=00:01:06.20 bitrate= 285.1kbits/s speed=0.987x elapsed=0:01:07.07    frame= 1670 fps= 25 q=28.0 size=    2304KiB time=00:01:06.72 bitrate= 282.9kbits/s speed=0.987x elapsed=0:01:07.57    frame= 1683 fps= 25 q=28.0 size=    2304KiB time=00:01:07.24 bitrate= 280.7kbits/s speed=0.988x elapsed=0:01:08.07    frame= 1695 fps= 25 q=28.0 size=    2304KiB time=00:01:07.72 bitrate= 278.7kbits/s speed=0.988x elapsed=0:01:08.57    frame= 1707 fps= 25 q=28.0 size=    2304KiB time=00:01:08.20 bitrate= 276.8kbits/s speed=0.987x elapsed=0:01:09.07    frame= 1720 fps= 25 q=28.0 size=    2304KiB time=00:01:08.72 bitrate= 274.7kbits/s speed=0.988x elapsed=0:01:09.57    frame= 1733 fps= 25 q=28.0 size=    2304KiB time=00:01:09.24 bitrate= 272.6kbits/s speed=0.988x elapsed=0:01:10.07    frame= 1745 fps= 25 q=28.0 size=    2304KiB time=00:01:09.72 bitrate= 270.7kbits/s speed=0.988x elapsed=0:01:10.57    frame= 1758 fps= 25 q=28.0 size=    2304KiB time=00:01:10.24 bitrate= 268.7kbits/s speed=0.988x elapsed=0:01:11.07    frame= 1770 fps= 25 q=28.0 size=    2304KiB time=00:01:10.72 bitrate= 266.9kbits/s speed=0.988x elapsed=0:01:11.57    frame= 1783 fps= 25 q=28.0 size=    2304KiB time=00:01:11.24 bitrate= 264.9kbits/s speed=0.988x elapsed=0:01:12.07    frame= 1795 fps= 25 q=28.0 size=    2304KiB time=00:01:11.72 bitrate= 263.2kbits/s speed=0.988x elapsed=0:01:12.57    frame= 1807 fps= 25 q=28.0 size=    2304KiB time=00:01:12.24 bitrate= 261.3kbits/s speed=0.989x elapsed=0:01:13.07    frame= 1820 fps= 25 q=28.0 size=    2304KiB time=00:01:12.72 bitrate= 259.5kbits/s speed=0.988x elapsed=0:01:13.58    frame= 1833 fps= 25 q=28.0 size=    2304KiB time=00:01:13.24 bitrate= 257.7kbits/s speed=0.989x elapsed=0:01:14.08    frame= 1845 fps= 25 q=28.0 size=    2304KiB time=00:01:13.72 bitrate= 256.0kbits/s speed=0.988x elapsed=0:01:14.58    frame= 1858 fps= 25 q=28.0 size=    2304KiB time=00:01:14.24 bitrate= 254.2kbits/s speed=0.989x elapsed=0:01:15.08    frame= 1870 fps= 25 q=28.0 size=    2304KiB time=00:01:14.72 bitrate= 252.6kbits/s speed=0.989x elapsed=0:01:15.58    frame= 1883 fps= 25 q=28.0 size=    2560KiB time=00:01:15.24 bitrate= 278.7kbits/s speed=0.989x elapsed=0:01:16.08    frame= 1895 fps= 25 q=28.0 size=    2560KiB time=00:01:15.72 bitrate= 277.0kbits/s speed=0.989x elapsed=0:01:16.58    frame= 1908 fps= 25 q=28.0 size=    2560KiB time=00:01:16.24 bitrate= 275.1kbits/s speed=0.989x elapsed=0:01:17.08    frame= 1920 fps= 25 q=28.0 size=    2560KiB time=00:01:16.72 bitrate= 273.4kbits/s speed=0.989x elapsed=0:01:17.58    frame= 1933 fps= 25 q=28.0 size=    2560KiB time=00:01:17.24 bitrate= 271.5kbits/s speed=0.989x elapsed=0:01:18.08    frame= 1945 fps= 25 q=28.0 size=    2560KiB time=00:01:17.72 bitrate= 269.8kbits/s speed=0.989x elapsed=0:01:18.58    frame= 1958 fps= 25 q=28.0 size=    2560KiB time=00:01:18.24 bitrate= 268.0kbits/s speed=0.989x elapsed=0:01:19.08    frame= 1970 fps= 25 q=28.0 size=    2560KiB time=00:01:18.72 bitrate= 266.4kbits/s speed=0.989x elapsed=0:01:19.58    frame= 1983 fps= 25 q=28.0 size=    2560KiB time=00:01:19.24 bitrate= 264.7kbits/s speed=0.989x elapsed=0:01:20.08    frame= 1995 fps= 25 q=28.0 size=    2560KiB time=00:01:19.72 bitrate= 263.1kbits/s speed=0.989x elapsed=0:01:20.58    frame= 2008 fps= 25 q=28.0 size=    2560KiB time=00:01:20.24 bitrate= 261.4kbits/s speed=0.99x elapsed=0:01:21.08    [vost#0:0/libx264 @ 0x5642386f72c0] Error submitting a packet to the muxer: Immediate exit requested
    Last message repeated 1 times
[out#0/matroska @ 0x5642386f6500] Error muxing a packet
[out#0/matroska @ 0x5642386f6500] Task finished with error code: -1414092869 (Immediate exit requested)
[out#0/matroska @ 0x5642386f6500] Terminating thread with return code -1414092869 (Immediate exit requested)
[out#0/matroska @ 0x5642386f6500] Error writing trailer: Immediate exit requested
[out#0/matroska @ 0x5642386f6500] Error closing file: Immediate exit requested
[out#0/matroska @ 0x5642386f6500] video:3319KiB audio:0KiB subtitle:0KiB other streams:0KiB global headers:0KiB muxing overhead: unknown
frame= 2026 fps= 25 q=-1.0 Lsize=    2560KiB time=00:01:20.96 bitrate= 259.0kbits/s speed=0.991x elapsed=0:01:21.67    
[libx264 @ 0x5642386f7f00] frame I:9     Avg QP:11.41  size:174209
[libx264 @ 0x5642386f7f00] frame P:517   Avg QP:16.98  size:  2459
[libx264 @ 0x5642386f7f00] frame B:1515  Avg QP:22.89  size:   479
[libx264 @ 0x5642386f7f00] consecutive B-frames:  0.9%  0.4%  0.1% 98.6%
[libx264 @ 0x5642386f7f00] mb I  I16..4: 83.5%  1.4% 15.1%
[libx264 @ 0x5642386f7f00] mb P  I16..4:  0.3%  0.1%  0.0%  P16..4:  0.3%  0.2%  0.1%  0.0%  0.0%    skip:98.9%
[libx264 @ 0x5642386f7f00] mb B  I16..4:  0.0%  0.0%  0.0%  B16..8:  0.3%  0.1%  0.0%  direct: 0.1%  skip:99.5%  L0:45.5% L1:48.3% BI: 6.1%
[libx264 @ 0x5642386f7f00] 8x8 transform intra:4.0% inter:3.1%
[libx264 @ 0x5642386f7f00] coded y,uvDC,uvAC intra: 19.1% 27.6% 24.5% inter: 0.1% 0.1% 0.1%
[libx264 @ 0x5642386f7f00] i16 v,h,dc,p: 79% 17%  3%  0%
[libx264 @ 0x5642386f7f00] i8 v,h,dc,ddl,ddr,vr,hd,vl,hu: 10% 19% 66%  1%  0%  0%  2%  0%  1%
[libx264 @ 0x5642386f7f00] i4 v,h,dc,ddl,ddr,vr,hd,vl,hu: 26% 37% 20%  2%  2%  2%  6%  2%  4%
[libx264 @ 0x5642386f7f00] i8c dc,h,v,p: 70% 22%  7%  1%
[libx264 @ 0x5642386f7f00] Weighted P-Frames: Y:0.0% UV:0.0%
[libx264 @ 0x5642386f7f00] kb/s:349.26
Exiting normally, received signal 2.
